<?xml version="1.0" standalone="no"?>
<!DOCTYPE svg PUBLIC "-//W3C//DTD SVG 20010904//EN"
 "http://www.w3.org/TR/2001/REC-SVG-20010904/DTD/svg10.dtd">
<svg version="1.0" xmlns="http://www.w3.org/2000/svg"
 width="260.000000pt" height="260.000000pt" viewBox="0 0 260.000000 260.000000"
 preserveAspectRatio="xMidYMid meet">
<metadata>
Created by potrace 1.11, written by Peter Selinger 2001-2013
</metadata>
<g transform="translate(0.000000,260.000000) scale(0.100000,-0.100000)"
fill="#000000" stroke="none">
<path d="M1075 2410 c-278 -59 -525 -217 -692 -444 -288 -390 -284 -943 8
-1337 60 -82 195 -212 272 -262 86 -57 251 -133 342 -157 161 -43 420 -43 580
0 454 121 790 517 834 982 45 476 -211 927 -644 1133 -211 100 -475 132 -700
85z m422 -79 c377 -74 678 -341 796 -706 40 -122 50 -197 50 -345 -1 -112 -5
-152 -26 -232 -96 -363 -369 -645 -732 -755 -525 -158 -1102 144 -1281 669
-55 162 -71 388 -38 546 85 416 417 742 840 826 104 21 276 19 391 -3z"/>
<path d="M1395 1961 c-36 -16 -105 -81 -105 -99 0 -4 -4 -13 -9 -20 -7 -11
-16 -10 -48 6 -219 112 -495 -42 -496 -278 0 -99 43 -178 126 -230 l29 -18
-34 -11 c-133 -46 -162 -207 -46 -267 l29 -15 -45 -31 c-93 -61 -122 -164 -70
-244 51 -78 154 -121 314 -131 154 -9 282 26 365 99 79 70 105 161 70 246 -45
105 -142 144 -409 162 -194 13 -238 32 -222 95 12 48 48 60 186 60 115 0 130
3 185 28 73 34 128 85 163 152 21 41 26 64 26 125 1 76 -3 88 -62 182 -15 25
-15 29 1 63 9 19 28 40 42 47 22 10 27 8 45 -15 26 -33 53 -41 82 -26 31 16
38 28 38 66 0 65 -75 91 -155 54z m-236 -160 c53 -38 84 -112 89 -214 3 -67 0
-98 -12 -132 -42 -109 -171 -149 -261 -81 -53 41 -79 106 -83 211 -3 83 -1 94
25 145 37 72 86 102 159 97 32 -2 62 -12 83 -26z m62 -811 c80 -12 125 -34
149 -72 41 -65 7 -149 -79 -192 -134 -69 -344 -52 -426 34 -51 54 -49 146 6
213 l30 36 132 -5 c73 -3 157 -10 188 -14z"/>
<path d="M1978 1640 c-51 -15 -100 -53 -128 -97 l-28 -43 -26 44 c-38 66 -82
96 -139 96 -63 0 -120 -49 -142 -123 -19 -64 -19 -88 0 -162 23 -87 57 -151
139 -262 98 -131 126 -156 160 -147 14 3 83 62 156 133 103 100 135 138 156
184 58 129 69 234 31 302 -40 71 -103 98 -179 75z m100 -46 c33 -23 62 -87 62
-137 0 -55 -31 -146 -70 -208 -37 -56 -194 -210 -240 -234 l-32 -17 -45 44
c-97 96 -196 267 -207 362 -13 103 37 196 105 196 47 0 104 -59 129 -136 12
-35 25 -66 30 -69 21 -13 39 9 45 57 15 106 151 193 223 142z"/>
<path d="M1610 1397 c0 -19 10 -27 26 -20 21 8 17 33 -6 33 -11 0 -20 -6 -20
-13z"/>
<path d="M1644 1315 c-8 -21 3 -48 19 -43 19 7 22 58 2 58 -8 0 -18 -7 -21
-15z"/>
<path d="M1685 1229 c-10 -31 11 -48 30 -23 20 27 19 44 -4 44 -11 0 -23 -9
-26 -21z"/>
</g>
</svg>
