<?xml version="1.0" standalone="no"?><!-- Generator: Gravit.io --><svg xmlns="http://www.w3.org/2000/svg" xmlns:xlink="http://www.w3.org/1999/xlink" style="isolation:isolate" viewBox="0 0 700 700" width="700" height="700"><defs><clipPath id="_clipPath_9hmBX3fVOPiQejU4mvM72J8vwpF9PN8o"><rect width="700" height="700"/></clipPath></defs><g clip-path="url(#_clipPath_9hmBX3fVOPiQejU4mvM72J8vwpF9PN8o)"><clipPath id="_clipPath_MxohY89oJ9uSGHUX06fNrWzOemA6R2VI"><rect x="0" y="0" width="700" height="700" transform="matrix(1,0,0,1,0,0)" fill="rgb(255,255,255)"/></clipPath><g clip-path="url(#_clipPath_MxohY89oJ9uSGHUX06fNrWzOemA6R2VI)"><g><g><path d=" M 376.792 181.722 C 368.364 184.733 362.846 188.346 356.023 194.969 C 349.702 201.191 344.585 208.417 341.675 215.141 C 340.571 217.549 339.267 219.456 338.765 219.456 C 338.163 219.456 334.551 217.85 330.638 215.843 C 313.782 207.112 292.411 203.098 274.451 205.306 C 260.806 207.012 255.388 208.618 241.843 215.241 C 223.984 223.972 210.037 237.921 201.007 255.784 C 197.495 262.809 195.79 269.031 194.184 280.171 C 191.174 301.145 196.492 320.714 209.435 336.37 C 214.753 342.893 225.489 351.724 230.907 354.132 C 234.82 355.838 234.519 357.545 230.104 358.95 C 215.756 363.465 203.515 373.501 197.596 385.544 C 194.385 392.067 194.184 393.271 194.184 402.102 C 194.285 410.733 194.586 412.138 197.194 416.955 C 200.907 423.779 206.124 428.496 214.351 432.409 C 220.171 435.219 222.88 438.23 219.469 438.23 C 217.06 438.23 204.418 447.764 198.198 454.187 C 187.362 465.426 184.151 473.254 184.151 488.408 C 184.251 496.637 184.653 498.744 186.96 503.963 C 194.586 520.521 209.134 531.661 232.512 538.987 C 262.712 548.42 303.849 549.323 332.143 541.094 C 335.153 540.191 338.765 539.187 340.17 538.886 C 341.575 538.585 343.18 537.983 343.682 537.582 C 344.284 537.281 346.993 536.076 349.702 535.073 C 360.939 530.958 377.595 518.916 384.819 509.783 C 394.049 498.042 397.36 488.508 397.36 473.756 C 397.36 465.527 396.859 462.014 394.752 455.692 C 388.832 437.327 377.795 427.392 355.22 419.865 C 334.351 413.041 321.006 410.933 284.485 409.127 C 253.281 407.622 236.826 404.912 229.502 400.396 C 217.161 392.669 220.171 376.913 235.321 370.089 C 245.254 365.573 250.973 365.172 278.966 367.58 C 287.294 368.283 302.746 366.677 310.572 364.268 C 337.06 356.039 355.421 341.588 366.959 319.811 C 376.892 300.844 378.197 274.752 369.969 256.487 C 366.759 249.261 361.341 240.832 356.725 235.613 C 353.514 232.101 353.113 231.197 353.715 228.287 C 355.822 219.054 362.645 209.32 369.468 205.808 C 372.177 204.403 375.086 203.399 375.789 203.6 C 376.491 203.8 378.598 206.109 380.504 208.818 C 385.722 216.546 388.23 217.951 396.859 217.951 C 403.882 217.951 404.484 217.75 407.795 214.538 C 413.113 209.42 414.718 205.105 414.116 198.281 C 413.514 191.055 409.802 185.435 403.28 181.823 C 397.059 178.511 385.822 178.411 376.792 181.722 Z  M 296.224 221.563 C 312.578 226.28 325.722 243.742 331.24 268.128 C 333.147 276.458 333.147 307.467 331.24 314.291 C 324.117 339.079 308.766 351.925 286.09 351.925 C 266.224 351.925 252.679 342.893 243.348 323.424 C 237.027 310.077 235.422 301.647 235.422 281.676 C 235.422 263.211 236.425 258.594 242.545 245.749 C 249.167 232.101 260.806 223.169 275.956 220.058 C 279.769 219.356 291.308 220.158 296.224 221.563 Z  M 260.204 442.746 C 266.826 443.549 280.371 444.251 290.806 444.251 C 316.19 444.352 338.264 447.563 350.404 453.083 C 360.237 457.498 365.856 463.921 368.665 473.555 C 370.672 480.48 370.672 484.494 368.765 490.816 C 364.451 505.167 352.11 516.206 332.645 523.331 C 311.675 530.958 275.956 531.56 254.886 524.535 C 239.335 519.417 227.395 510.285 221.877 499.447 C 213.95 483.49 218.566 462.616 233.214 448.165 C 240.238 441.241 242.044 440.237 245.856 440.839 C 247.261 441.04 253.682 441.943 260.204 442.746 Z " fill="rgb(46,46,46)"/><g><path d=" M 528.131 236.382 C 527.352 236.729 525.116 237.054 523.109 237.045 C 521.179 237.14 518.853 237.452 517.984 237.786 C 517.116 238.121 514.445 238.932 511.967 239.68 C 507.675 240.994 500.115 244.771 495.839 247.914 C 492.687 250.209 485.595 257.796 483.265 261.394 C 482.105 263.148 480.817 264.519 480.459 264.469 C 479.474 264.33 476.585 258.903 474.977 254.112 C 472.737 247.314 468.439 240.228 463.723 235.456 C 456.689 228.35 454.052 226.975 445.369 225.755 C 437.044 224.585 433.773 225.13 425.805 229.214 C 405.271 239.568 394.679 270.766 402.131 298.93 C 402.621 300.643 402.869 302.777 402.756 303.583 C 402.63 304.479 402.836 305.603 403.132 306.102 C 403.504 306.701 404.251 309.18 404.794 311.813 C 405.349 314.356 406.663 318.649 407.768 321.179 C 408.783 323.695 409.646 326.007 409.62 326.187 C 409.57 326.545 415.736 339.829 418.728 345.819 C 429.348 367.033 449.874 398.952 453.365 399.443 C 454.261 399.569 455.743 399.412 456.701 399.09 C 457.569 398.756 460.316 398.046 462.667 397.555 C 465.658 397.062 468.825 395.316 472.424 392.444 C 475.307 390.11 480.924 386.517 484.793 384.321 C 492.313 380.174 518.744 360.332 528.569 351.487 C 535.687 345 541.757 338.184 545.809 332.088 C 550.09 325.659 555.144 316.326 556.402 312.577 C 556.757 311.348 557.545 309.633 558.132 308.711 C 560.514 304.754 563.037 295.887 564.805 285.91 C 566.799 274.321 566.403 268.696 563.241 261.312 C 562.342 259.268 561.699 257.351 561.762 256.904 C 561.988 255.292 551.887 243.373 547.969 240.722 C 544.384 238.301 542.389 237.564 536.659 236.759 C 532.721 236.205 528.911 236.035 528.131 236.382 Z  M 541.493 249.125 C 547.935 253.957 552.016 260.647 554.479 270.398 C 556.014 276.365 556.031 278.194 554.848 286.611 C 553.64 295.206 552.002 300.363 548.285 307.327 C 547.788 308.262 546.668 310.387 545.803 312.001 C 544.937 313.613 543.869 316.019 543.5 317.338 C 543.043 318.643 542.1 320.153 541.308 320.59 C 540.517 321.027 539.842 321.936 539.766 322.474 C 539.351 325.428 527.276 339.253 520.474 344.779 C 508.734 354.268 481.651 374.202 479.633 374.922 C 478.189 375.449 474.141 377.62 470.656 379.686 C 467.068 381.83 463.812 383.564 463.275 383.488 C 462.828 383.426 461.666 383.901 460.657 384.581 C 458.142 386.236 456.426 384.809 447.772 373.64 C 441.207 365.139 435.998 356.738 431.054 346.455 C 430.064 344.399 428.036 340.644 426.65 338.167 C 425.264 335.69 423.903 333.033 423.645 332.266 C 423.477 331.512 422.243 328.6 421.062 325.969 C 418.595 320.783 418.158 319.352 415.017 309.872 C 408.864 291.294 408.252 274.864 413.176 258.665 C 418.568 240.432 438.065 229.659 450.102 238.198 C 455.659 242.175 467.32 259.883 466.804 263.554 C 466.728 264.091 467.026 265.868 467.439 267.478 C 468.212 270.417 468.432 271.452 470.682 282.725 C 471.251 285.818 472.332 289.166 473.101 290.187 C 474.397 292.013 474.576 292.038 478.319 290.738 C 480.426 290.03 482.47 289.13 482.801 288.719 C 483.133 288.31 484.568 283.946 486.103 278.866 C 489.707 266.865 493.008 262.215 502.223 255.75 C 509.908 250.438 515.438 248.111 525.367 246.311 C 529.954 245.495 538.6 246.984 541.493 249.125 Z " fill="rgb(46,46,46)"/><path d=" M 427.198 280.357 C 424.644 281.642 424.238 283.228 425.807 287.01 C 427.169 290.306 427.694 290.47 431.333 288.608 C 434.282 287.106 436.204 283.175 434.946 281.081 C 433.908 279.383 429.854 278.996 427.198 280.357 Z " fill="rgb(46,46,46)"/><path d=" M 427.009 263.29 C 424.663 264.47 424.291 265.926 425.731 269.398 C 426.982 272.424 427.464 272.576 430.805 270.866 C 433.513 269.486 435.278 265.877 434.123 263.955 C 433.169 262.396 429.447 262.04 427.009 263.29 Z " fill="rgb(46,46,46)"/><path d=" M 431.914 302.659 C 428.314 304.892 427.366 309.689 430.02 312.893 C 432.199 315.574 433.708 315.877 436.504 314.17 C 438.304 313.053 438.596 312.272 438.815 307.464 C 439.06 302.477 438.854 301.991 436.821 301.522 C 435.592 301.168 433.42 301.684 431.914 302.659 Z " fill="rgb(46,46,46)"/><path d=" M 439.198 324.226 C 434.976 328.289 434.586 331.065 437.801 334.165 C 439.16 335.542 440.402 336.447 440.605 336.294 C 440.797 336.229 442.736 334.128 444.904 331.693 C 450.004 325.928 450.253 322.858 445.738 321.859 C 442.911 321.188 442.132 321.534 439.198 324.226 Z " fill="rgb(46,46,46)"/></g></g><path d=" M 11 358.5 C 11 174.988 159.988 26 343.5 26 C 527.012 26 676 174.988 676 358.5 C 676 542.012 527.012 691 343.5 691 C 159.988 691 11 542.012 11 358.5 Z  M 42.294 358.5 C 42.294 196.163 181.163 57.294 343.5 57.294 C 505.837 57.294 645.684 196.163 645.684 358.5 C 645.684 520.837 504.859 659.706 342.522 659.706 C 180.185 659.706 42.294 520.837 42.294 358.5 Z " fill-rule="evenodd" fill="rgb(46,46,46)"/></g></g></g></svg>